<svg xmlns="http://www.w3.org/2000/svg" width="124" height="35" fill="none"><g clip-path="url(#a)"><circle cx="17.5" cy="16.5" r="12.5" fill="#fff"/><path fill="url(#b)" fill-rule="evenodd" d="M17.437 34.27c9.512 0 17.223-7.712 17.223-17.224S26.95-.178 17.437-.178C7.924-.178.213 7.534.213 17.046S7.924 34.27 17.437 34.27ZM22.81 7.846c.261-.93-.64-1.479-1.463-.892L9.851 15.142c-.893.637-.752 1.904.211 1.904h3.027v-.023h5.899l-4.807 1.695-2.119 7.528c-.261.93.64 1.479 1.464.892L25.02 18.95c.893-.636.752-1.904-.21-1.904h-4.59l2.589-9.2Z" clip-rule="evenodd"/><g clip-path="url(#c)"><path fill="#D2D2D2" d="M56.595 25.066H44.507v-2.563l7.838-9.973h-7.817V9.732h11.81v2.605l-7.88 9.932h8.137v2.797Zm8.896 0v-1.41c-.747 1.069-1.879 1.624-3.438 1.624-2.37 0-3.951-1.388-3.951-3.524 0-2.221 1.794-3.417 5.126-3.417.64 0 1.196.043 1.9.128v-.683c0-1.282-.726-2.03-1.965-2.03-1.281 0-2.05.748-2.157 2.03h-2.67c.172-2.627 2.072-4.336 4.827-4.336 2.99 0 4.742 1.644 4.742 4.442v7.176H65.49ZM60.9 21.671c0 .96.683 1.559 1.794 1.559 1.516 0 2.434-.833 2.434-2.157v-.812c-.704-.107-1.196-.15-1.708-.15-1.688 0-2.52.534-2.52 1.56Zm20.947-2.307c0 3.374-1.987 5.916-5.062 5.916-1.346 0-2.499-.577-3.353-1.687v5.595h-2.969V13.662h2.734v1.665c.875-1.217 2.135-1.88 3.588-1.88 3.075 0 5.062 2.564 5.062 5.917Zm-3.054 0c0-2.136-1.218-3.29-2.67-3.29-1.453 0-2.67 1.133-2.67 3.29s1.218 3.268 2.67 3.268 2.67-1.09 2.67-3.268Zm8.909 5.702h-2.947v-8.863h-2.307v-2.541h2.307v-.62c0-2.264 1.217-3.545 3.588-3.545.726 0 1.345.128 1.837.342v2.349c-.32-.128-.748-.192-1.132-.192-.812 0-1.346.32-1.346 1.11v.556h2.969v2.541h-2.969v8.863Zm11.035 0v-1.41c-.747 1.069-1.88 1.624-3.438 1.624-2.37 0-3.951-1.388-3.951-3.524 0-2.221 1.794-3.417 5.125-3.417.641 0 1.197.043 1.901.128v-.683c0-1.282-.726-2.03-1.965-2.03-1.281 0-2.05.748-2.157 2.03h-2.67c.171-2.627 2.072-4.336 4.827-4.336 2.99 0 4.742 1.644 4.742 4.442v7.176h-2.414Zm-4.591-3.395c0 .96.683 1.559 1.793 1.559 1.517 0 2.435-.833 2.435-2.157v-.812c-.704-.107-1.196-.15-1.708-.15-1.688 0-2.52.534-2.52 1.56Zm19.195-.257c0 2.392-1.815 3.866-5.062 3.866-3.246 0-5.061-1.56-5.296-4.1h2.84c.022 1.174 1.026 1.922 2.499 1.922 1.153 0 2.029-.364 2.029-1.175 0-.726-.47-1.025-1.559-1.239l-2.05-.384c-2.051-.363-3.289-1.495-3.289-3.268 0-2.114 1.815-3.588 4.656-3.588 2.862 0 4.826 1.516 5.04 3.972h-2.841c-.106-1.11-.939-1.794-2.199-1.794-1.09 0-1.816.406-1.816 1.132 0 .684.47.961 1.495 1.154l2.2.405c2.221.428 3.353 1.453 3.353 3.097Zm8.888.77v2.583c-.726.364-1.409.513-2.285.513-2.349 0-3.823-1.346-3.823-3.908v-5.169h-2.307v-2.541h2.307v-3.375h2.947v3.374h3.268v2.542h-3.268v4.485c0 1.324.598 1.858 1.666 1.858.556 0 1.068-.128 1.495-.363Z"/></g></g><defs><clipPath id="a"><path fill="#fff" d="M.291 0h123v34.448h-123z"/></clipPath><clipPath id="c"><path fill="#fff" d="M45.072 0h78.218v34.448H45.072z"/></clipPath><linearGradient id="b" x1="34.66" x2=".213" y1="17.046" y2="17.046" gradientUnits="userSpaceOnUse"><stop stop-color="#FFB168"/><stop offset="1" stop-color="#E36D00"/></linearGradient></defs></svg>