<svg xmlns="http://www.w3.org/2000/svg" width="107" height="25" fill="none"><path fill="#919191" d="M18.155 18.655a1.5 1.5 0 0 1-1.35.848H8.648a1.5 1.5 0 0 1-1.348-2.16l5.633-11.502A1.5 1.5 0 0 1 14.28 5h8.076a1.5 1.5 0 0 1 1.351 2.153l-5.553 11.502ZM3.678 13.622c.526 1.151 2.153 1.175 2.712.038l3.192-6.498A1.5 1.5 0 0 0 8.236 5h-6.16A1.5 1.5 0 0 0 .711 7.123l2.967 6.499Z"/><path fill="#737373" d="M32.643 5.923v13.014H30.88V5.924h1.764Zm3.348 7.272h-3.834v-1.53h3.69c.732 0 1.296-.185 1.692-.557.396-.373.594-.9.594-1.585 0-.647-.21-1.146-.63-1.493-.408-.36-.996-.54-1.764-.54h-3.888V5.922h3.996c1.272 0 2.268.306 2.988.918.732.612 1.098 1.452 1.098 2.52 0 .804-.198 1.476-.594 2.016-.384.528-.954.912-1.71 1.152v-.233c.84.204 1.47.575 1.89 1.116.432.527.648 1.211.648 2.051 0 .72-.168 1.345-.504 1.873-.324.516-.798.912-1.422 1.188-.624.275-1.362.413-2.214.413h-4.176V17.37h4.14c.756 0 1.338-.185 1.746-.557.408-.372.612-.895.612-1.566 0-.648-.21-1.152-.63-1.512-.408-.36-.984-.54-1.728-.54Zm10.136-3.132v1.548h-.756c-.804 0-1.44.234-1.908.702-.456.457-.684 1.11-.684 1.962v4.662h-1.692v-8.784h1.584l.144 1.764h-.162c.12-.575.408-1.043.864-1.403.456-.372 1.026-.558 1.71-.558.156 0 .3.011.432.036.144.011.3.035.468.071Zm.587 8.874v-8.802h1.692v8.803h-1.692Zm.828-10.89c-.3 0-.564-.108-.792-.324a1.117 1.117 0 0 1-.324-.792c0-.311.108-.575.324-.792.228-.216.492-.324.792-.324.312 0 .576.108.792.324.216.216.324.48.324.792 0 .3-.108.564-.324.792-.216.216-.48.324-.792.324Zm1.763 6.264c0-.828.168-1.572.504-2.232a3.954 3.954 0 0 1 1.44-1.602c.624-.396 1.362-.594 2.214-.594.792 0 1.47.193 2.034.577.564.371.966.893 1.206 1.565l-.216.234.18-2.123h1.512v8.442c0 .924-.18 1.721-.54 2.393a3.819 3.819 0 0 1-1.53 1.584c-.66.372-1.44.558-2.34.558-1.2 0-2.184-.317-2.952-.953-.768-.637-1.236-1.512-1.404-2.628h1.692c.108.648.396 1.151.864 1.512.468.36 1.068.54 1.8.54.828 0 1.488-.253 1.98-.756.504-.492.756-1.159.756-1.998v-2.484l.216.233a2.963 2.963 0 0 1-1.242 1.566c-.6.372-1.296.558-2.088.558-.84 0-1.566-.191-2.178-.575a4.028 4.028 0 0 1-1.422-1.584c-.324-.66-.486-1.405-.486-2.232Zm1.692-.036c0 .553.108 1.05.324 1.495.228.444.54.797.936 1.061.408.265.882.396 1.422.396.576 0 1.068-.125 1.476-.378.408-.252.72-.6.936-1.043.228-.444.342-.954.342-1.53 0-.576-.108-1.08-.324-1.512a2.492 2.492 0 0 0-.936-1.026c-.408-.252-.9-.378-1.476-.378-.564 0-1.05.132-1.458.396a2.635 2.635 0 0 0-.918 1.062 3.215 3.215 0 0 0-.324 1.457Zm10.316 4.644H59.62V5.69h1.693v5.796a3.05 3.05 0 0 1 1.188-1.151c.516-.3 1.116-.45 1.8-.45 1.115 0 1.95.33 2.501.99.552.66.828 1.553.828 2.681v5.383h-1.69v-5.004c0-.6-.09-1.08-.27-1.44-.168-.373-.415-.643-.739-.81-.312-.168-.678-.252-1.098-.252-.54 0-1.002.12-1.386.36-.371.24-.654.563-.846.972a3.173 3.173 0 0 0-.288 1.368v4.787Zm6.725-8.784h5.148v1.422h-5.148v-1.421Zm3.42 8.803h-1.692V7.382h1.692v11.556Zm4.299 0h-1.764V5.924h1.764l7.145 10.8h-.486v-10.8h1.764v13.014h-1.764l-7.145-10.8h.486v10.8Zm13.964.216c-.852 0-1.608-.192-2.268-.576a4.186 4.186 0 0 1-1.548-1.62c-.372-.696-.558-1.5-.558-2.412 0-.925.18-1.734.54-2.43a4.241 4.241 0 0 1 1.512-1.639c.648-.396 1.398-.594 2.25-.594.84 0 1.566.18 2.178.54.624.36 1.104.864 1.44 1.512.348.649.522 1.41.522 2.287v.63l-7.542.018.036-1.134h5.814c0-.732-.222-1.32-.666-1.764-.444-.444-1.038-.666-1.782-.666-.564 0-1.05.126-1.458.378-.396.24-.702.6-.918 1.08-.204.468-.306 1.032-.306 1.692 0 1.056.24 1.872.72 2.448.48.564 1.17.846 2.07.846.66 0 1.2-.133 1.62-.396.42-.264.702-.648.846-1.152h1.584c-.216.935-.678 1.661-1.386 2.177-.708.516-1.608.774-2.7.774Zm4.238-2.773h1.62c0 .445.162.799.486 1.063.324.252.762.378 1.314.378.6 0 1.062-.114 1.386-.342a1.13 1.13 0 0 0 .486-.954c0-.288-.09-.528-.27-.72-.168-.192-.48-.348-.936-.468l-1.548-.36c-.78-.192-1.362-.486-1.746-.883-.372-.396-.558-.918-.558-1.566 0-.54.138-1.008.414-1.403a2.804 2.804 0 0 1 1.17-.918c.504-.216 1.08-.325 1.728-.325.648 0 1.206.115 1.674.343.48.227.852.545 1.116.954.276.408.42.893.432 1.457h-1.62c-.012-.456-.162-.81-.45-1.062-.288-.252-.69-.377-1.206-.377-.528 0-.936.114-1.224.341-.288.229-.432.54-.432.937 0 .587.432.99 1.296 1.205l1.548.379c.744.167 1.302.444 1.674.827.372.372.558.883.558 1.53 0 .552-.15 1.038-.45 1.458-.3.409-.714.727-1.242.954-.516.216-1.128.325-1.836.325-1.032 0-1.854-.253-2.466-.756-.612-.505-.918-1.177-.918-2.017Zm6.852-6.245h5.148v1.421h-5.148v-1.421Zm3.42 8.802h-1.692V7.382h1.692v11.556Z"/></svg>