<svg xmlns="http://www.w3.org/2000/svg" width="108" height="23" fill="none"><path fill="#919191" d="M8.552 1A7.747 7.747 0 0 1 .805 8.747v5.165h7.747v7.747h5.165a7.747 7.747 0 0 1 7.747-7.747V8.747h-7.747V1H8.552Z"/><path fill="#737373" d="M30.643 4.986V18H28.88V4.986h1.764Zm3.294 8.37h-3.69v-1.584h3.312c.876 0 1.548-.234 2.016-.702.468-.48.702-1.122.702-1.926 0-.816-.234-1.446-.702-1.89-.468-.456-1.116-.684-1.944-.684h-3.78V4.986h4.086c.852 0 1.59.174 2.214.522.624.348 1.11.834 1.458 1.458.348.624.522 1.356.522 2.196 0 .804-.174 1.524-.522 2.16a3.795 3.795 0 0 1-1.458 1.494c-.624.36-1.362.54-2.214.54Zm9.944-4.23v1.548h-.756c-.804 0-1.44.234-1.908.702-.456.456-.684 1.11-.684 1.962V18h-1.692V9.216h1.584l.144 1.764h-.162c.12-.576.408-1.044.864-1.404.456-.372 1.026-.558 1.71-.558.156 0 .3.012.432.036.144.012.3.036.468.072ZM44.468 18V9.198h1.692V18h-1.692Zm.828-10.89c-.3 0-.564-.108-.792-.324a1.117 1.117 0 0 1-.324-.792c0-.312.108-.576.324-.792.228-.216.492-.324.792-.324.312 0 .576.108.792.324.216.216.324.48.324.792 0 .3-.108.564-.324.792-.216.216-.48.324-.792.324ZM49.31 18h-1.692V9.198h1.512l.234 1.62-.216-.144c.18-.492.51-.9.99-1.224.492-.336 1.086-.504 1.782-.504.78 0 1.428.21 1.944.63.516.42.852.978 1.008 1.674h-.306c.12-.696.45-1.254.99-1.674.54-.42 1.206-.63 1.998-.63 1.008 0 1.8.294 2.376.882.576.588.864 1.392.864 2.412V18h-1.656v-5.346c0-.696-.18-1.23-.54-1.602-.348-.384-.822-.576-1.422-.576-.42 0-.792.096-1.116.288a1.89 1.89 0 0 0-.738.792c-.18.348-.27.756-.27 1.224V18h-1.674v-5.364c0-.696-.174-1.224-.522-1.584-.348-.372-.822-.558-1.422-.558-.42 0-.792.096-1.116.288a1.89 1.89 0 0 0-.738.792c-.18.336-.27.738-.27 1.206V18Zm16.627.216c-.852 0-1.608-.192-2.268-.576a4.186 4.186 0 0 1-1.548-1.62c-.372-.696-.558-1.5-.558-2.412 0-.924.18-1.734.54-2.43a4.241 4.241 0 0 1 1.512-1.638c.648-.396 1.398-.594 2.25-.594.84 0 1.566.18 2.178.54.624.36 1.104.864 1.44 1.512.348.648.522 1.41.522 2.286v.63l-7.542.018.036-1.134h5.814c0-.732-.222-1.32-.666-1.764-.444-.444-1.038-.666-1.782-.666-.564 0-1.05.126-1.458.378-.396.24-.702.6-.918 1.08-.204.468-.306 1.032-.306 1.692 0 1.056.24 1.872.72 2.448.48.564 1.17.846 2.07.846.66 0 1.2-.132 1.62-.396.42-.264.702-.648.846-1.152h1.584c-.216.936-.678 1.662-1.386 2.178-.708.516-1.608.774-2.7.774Zm10.646-.018c-1.236 0-2.316-.276-3.24-.828a5.813 5.813 0 0 1-2.16-2.34c-.516-1.008-.774-2.184-.774-3.528 0-1.344.264-2.52.792-3.528s1.26-1.794 2.196-2.358c.948-.564 2.04-.846 3.276-.846.984 0 1.872.186 2.664.558.792.36 1.452.87 1.98 1.53s.87 1.434 1.026 2.322h-1.89c-.24-.852-.702-1.518-1.386-1.998-.684-.48-1.5-.72-2.448-.72-.876 0-1.644.21-2.304.63-.648.408-1.152.99-1.512 1.746-.36.744-.54 1.626-.54 2.646 0 1.008.18 1.89.54 2.646.36.756.87 1.344 1.53 1.764.66.408 1.422.612 2.286.612.96 0 1.788-.234 2.484-.702a3.465 3.465 0 0 0 1.422-1.926h1.872a5.014 5.014 0 0 1-1.098 2.268 5.483 5.483 0 0 1-2.034 1.512c-.804.36-1.698.54-2.682.54Zm6.113-4.608c0-.9.198-1.698.594-2.394a4.333 4.333 0 0 1 1.62-1.638c.696-.396 1.488-.594 2.376-.594.888 0 1.674.198 2.358.594a4.333 4.333 0 0 1 1.62 1.638c.396.696.594 1.494.594 2.394 0 .9-.198 1.698-.594 2.394a4.333 4.333 0 0 1-1.62 1.638c-.684.396-1.47.594-2.358.594-.888 0-1.68-.198-2.376-.594a4.333 4.333 0 0 1-1.62-1.638c-.396-.696-.594-1.494-.594-2.394Zm1.71 0c0 .612.12 1.152.36 1.62a2.83 2.83 0 0 0 1.026 1.098c.432.264.93.396 1.494.396s1.062-.132 1.494-.396c.432-.264.768-.63 1.008-1.098.252-.468.378-1.008.378-1.62 0-.624-.126-1.164-.378-1.62a2.703 2.703 0 0 0-1.008-1.098c-.432-.264-.93-.396-1.494-.396s-1.062.132-1.494.396a2.83 2.83 0 0 0-1.026 1.098c-.24.456-.36.996-.36 1.62ZM97.77 9.126v1.548h-.756c-.804 0-1.44.234-1.908.702-.456.456-.684 1.11-.684 1.962V18H92.73V9.216h1.584l.144 1.764h-.162c.12-.576.408-1.044.864-1.404.456-.372 1.026-.558 1.71-.558.156 0 .3.012.432.036.144.012.3.036.468.072Zm4.068 9.09c-.852 0-1.608-.192-2.268-.576a4.186 4.186 0 0 1-1.548-1.62c-.372-.696-.558-1.5-.558-2.412 0-.924.18-1.734.54-2.43a4.241 4.241 0 0 1 1.512-1.638c.648-.396 1.398-.594 2.25-.594.84 0 1.566.18 2.178.54.624.36 1.104.864 1.44 1.512.348.648.522 1.41.522 2.286v.63l-7.542.018.036-1.134h5.814c0-.732-.222-1.32-.666-1.764-.444-.444-1.038-.666-1.782-.666-.564 0-1.05.126-1.458.378-.396.24-.702.6-.918 1.08-.204.468-.306 1.032-.306 1.692 0 1.056.24 1.872.72 2.448.48.564 1.17.846 2.07.846.66 0 1.2-.132 1.62-.396.42-.264.702-.648.846-1.152h1.584c-.216.936-.678 1.662-1.386 2.178-.708.516-1.608.774-2.7.774Z"/></svg>